<svg width="178" height="44" viewBox="0 0 178 44" fill="none" xmlns="http://www.w3.org/2000/svg">
<g clip-path="url(#clip0_23_519)">
<path d="M76.7509 17.7886C76.7509 17.7886 78.7588 19.4414 79.9463 20.5432C79.8606 20.8738 79.5668 21.0207 79.1505 21.0207H52.5956L52.3263 20.1882H57.4438V7.22296L61.3248 8.66762C65.7323 7.77389 70.5927 6.47615 73.3474 5.47223L76.4816 8.66762C76.1265 8.96145 75.4409 8.96145 74.5839 8.58192C70.9967 9.05939 65.6956 9.50014 60.8474 9.62257V13.5893H72.8944L74.6451 11.2264C74.6451 11.2264 76.6285 12.8302 77.7793 13.9443C77.6936 14.2749 77.3998 14.4218 76.9835 14.4218H70.9723V20.2004H74.9757L76.7509 17.8008V17.7886ZM73.5188 23.4081L77.9018 23.7386C77.8161 24.1181 77.6079 24.4242 76.8611 24.5344V32.4433C76.8611 32.6759 75.4042 33.2146 74.1065 33.2146H73.5188V31.1455H59.0721L57.9458 32.6882L54.3953 30.8272C54.6647 30.5579 55.1054 30.1784 55.5217 29.9335V23.3346L59.9659 23.7508C59.8802 24.1916 59.6353 24.4854 58.864 24.6079V30.2885H64.5202V22.0858L68.9644 22.4653C68.9032 22.8816 68.6951 23.1509 67.8993 23.2611V30.2763H73.531V23.4081H73.5188ZM60.8474 20.1759H67.5442V14.3973H60.8474V20.1759Z" fill="#3E3A39"/>
<path d="M109.99 28.9907C109.99 28.9907 111.949 30.5577 113.1 31.6841C113.014 32.0146 112.684 32.1616 112.304 32.1616H93.5605L93.3279 31.3046H101.029V25.8565H95.5561L95.3235 25.024H101.041V20.4329L105.13 20.7879V14.4828H101.69C101.335 17.4456 99.9146 20.8247 94.8215 22.8937L94.6991 22.7468C94.7236 23.0161 94.7236 23.2855 94.7236 23.5426C94.7481 26.4441 93.7197 28.0724 90.5733 28.1337C90.5733 27.2154 90.4508 26.0646 90.2182 25.6728C90.0346 25.4035 89.6795 25.1709 89.1776 25.0484V32.2962C89.1776 32.5656 88.1981 33.3369 86.631 33.3369H86.0679V6.3046L89.5571 7.66356H91.2711L92.9851 6.01077L96.0948 8.97355C95.8867 9.24289 95.4704 9.35308 94.8215 9.35308C93.8176 11.1895 92.0057 14.3604 90.5855 16.2213C93.0463 17.9966 94.3196 20.3349 94.6379 22.5019C97.3313 20.1023 98.1639 17.2008 98.372 14.4828H93.4626L93.23 13.6258H98.4454C98.4699 13.2096 98.4699 12.7933 98.4699 12.3771V10.5651C97.1355 10.9814 95.7153 11.3364 94.2706 11.6058L94.1482 11.2752C96.8416 9.85503 99.682 7.43094 100.955 5.59451L105.106 7.81047V5.99853L109.513 6.41479C109.452 6.83104 109.219 7.14936 108.411 7.27179V13.6136H109.121L110.578 11.3976C110.578 11.3976 112.268 12.9402 113.149 14.0054C113.088 14.3359 112.794 14.4828 112.378 14.4828H108.411V21.2042C108.411 21.4735 106.991 22.1224 105.681 22.1224H105.093V21.2899C104.946 21.4123 104.714 21.5225 104.322 21.5837V25.024H107.101L108.791 22.7468C108.791 22.7468 110.652 24.3139 111.778 25.379C111.692 25.7096 111.398 25.8565 110.982 25.8565H104.322V31.3046H108.264L109.978 28.9907H109.99ZM90.4753 24.5832C90.7691 24.5832 90.9528 24.5587 91.1242 24.4363C91.5404 24.2037 91.7486 23.6405 91.7486 22.6856C91.7486 20.6165 91.2711 18.3394 89.8509 16.3193C90.4141 14.3604 91.1242 10.8712 91.5037 8.50832H89.1653V24.5832H90.4631H90.4753ZM105.106 13.6258V7.99412C104.836 8.22673 104.334 8.34916 103.538 8.22673C103.037 8.58178 102.449 8.91233 101.788 9.23065V12.3648C101.788 12.7444 101.788 13.1606 101.763 13.6136H105.106V13.6258Z" fill="#3E3A39"/>
<path d="M122.16 15.8418V32.0391C122.16 32.4799 120.911 33.3124 119.43 33.3124H118.867V6.30459L122.307 7.78598H126.188L127.645 6.18216L130.73 8.52055C130.546 8.72868 130.191 8.96129 129.628 9.08372V16.307C129.604 16.5396 128.086 17.2252 127.057 17.2252H126.494V15.8295H122.172L122.16 15.8418ZM122.16 8.64298V11.3731H126.482V8.64298H122.16ZM126.482 15.0093V12.1934H122.16V15.0093H126.482ZM135.211 24.8036V31.1454C135.187 31.2923 134.317 31.831 132.848 31.831H132.309V24.8158H129.616C129.285 27.4236 128.135 30.2639 123.788 32.1248L123.495 31.7943C125.955 29.7497 126.629 27.2399 126.812 24.8036H123.348L123.115 23.9466H126.874V19.6861H124.033L123.801 18.8535H134.525L136.068 16.8335C136.068 16.8335 137.843 18.2292 138.884 19.2331C138.823 19.5269 138.529 19.6738 138.113 19.6738H135.235V23.9343H135.321L136.803 21.9265C136.803 21.9265 138.455 23.3222 139.435 24.3261C139.349 24.6567 139.055 24.8036 138.639 24.8036H135.235H135.211ZM132.309 23.9466V19.6861H129.702V23.0284C129.702 23.3222 129.702 23.616 129.677 23.9466H132.309ZM144.711 8.58176C144.503 8.81438 144.087 9.08372 143.499 9.16942V29.3457C143.499 31.6841 143.022 32.9818 139.447 33.3124C139.361 32.2228 139.239 31.3902 138.908 30.9128C138.529 30.3741 138.015 30.019 136.839 29.7864V29.4069C136.839 29.4069 139.055 29.5293 139.594 29.5293C140.035 29.5293 140.157 29.3579 140.157 28.9662V15.8418H135.652V16.0499C135.652 16.3437 134.256 17.0293 132.922 17.0293H132.444V6.4515L135.762 7.78598H139.851L141.394 5.97403L144.711 8.58176ZM135.652 8.64298V11.3731H140.157V8.64298H135.652ZM140.157 15.0093V12.1934H135.652V15.0093H140.157Z" fill="#3E3A39"/>
<path d="M162.66 25.1342C162.476 25.3668 162.121 25.5505 161.533 25.6117C161.264 29.4927 160.64 31.6842 159.366 32.5657C158.534 33.1044 157.469 33.3615 155.926 33.3615C155.926 32.529 155.84 31.7577 155.363 31.3536C154.885 30.8762 153.943 30.5211 152.755 30.313V29.8967C153.943 29.9824 155.84 30.1049 156.391 30.1049C156.869 30.1049 157.101 30.0804 157.309 29.8967C157.787 29.5172 158.167 27.8522 158.399 25.1342H155.204L154.016 26.5789L151.237 24.6812C151.568 24.4486 152.008 24.2038 152.449 24.0324C152.743 22.4898 153.098 20.1881 153.184 18.9148L156.44 20.2493H158.154V16.405H154.922C153.416 17.1763 151.727 17.8007 149.89 18.3027L149.682 17.9476C152.106 16.7968 154.212 15.193 155.865 13.3565C155.326 13.5402 154.677 13.5034 154.028 13.0627C153.845 11.8751 152.939 10.5162 151.984 9.83057L152.192 9.62244C155.951 9.41431 157.138 10.8712 156.991 12.0221C157.848 10.8957 158.534 9.68365 159.06 8.43487H151.604L151.335 7.60235H159.036L160.958 5.76591L164.068 8.45936C163.859 8.75319 163.566 8.83889 162.88 8.93683C161.521 11.5446 159.33 13.7973 156.452 15.5358H158.644L159.917 14.1156L162.341 16.4785C162.133 16.6866 161.754 16.8947 161.276 16.9804V21.5348C161.215 21.6205 159.917 22.1225 158.73 22.1225H158.142V21.0573H155.657C155.51 22.0613 155.302 23.31 155.094 24.2895H158.142L159.746 22.7469L162.623 25.1097L162.66 25.1342ZM177.229 10.859C177.045 11.1283 176.788 11.2385 176.127 11.1283C175.209 11.6058 173.935 12.169 172.662 12.6342C174.376 13.3688 176.188 13.9319 177.988 14.3849L177.927 14.7155C176.531 15.0093 175.551 16.1112 175.086 17.764C174.254 17.3845 173.458 16.9927 172.687 16.5519C172.564 16.5764 172.393 16.6132 172.209 16.6376V19.3066C172.209 19.6004 172.27 19.6861 172.564 19.6861H173.544C173.666 19.6861 173.96 19.6861 174.107 19.6616C174.254 19.6372 174.548 19.6004 174.731 19.5759H175.001L175.147 19.6004C175.858 19.931 176.066 20.1881 176.066 20.69C176.066 21.8776 175.062 22.1714 172.576 22.1714H172.368L175.184 24.5466C174.976 24.8404 174.682 24.9016 173.997 24.9628C173.372 26.028 172.601 27.0074 171.683 27.9256C176.213 30.4109 175.294 33.79 172.662 32.9942C171.866 31.9903 170.679 30.8639 169.344 29.7988C167.006 31.4026 164.104 32.5534 160.762 33.2635L160.554 32.884C163.247 31.8189 165.622 30.2518 167.422 28.4153C166.002 27.4359 164.521 26.5544 163.186 25.93L163.419 25.5995C165.586 25.8321 167.361 26.2239 168.806 26.7013C169.308 26.0157 169.748 25.2811 170.103 24.5343H162.696L162.464 23.6773H170.103L171.732 22.1959H171.401C169.295 22.1959 169.087 21.5471 169.087 19.8575V16.4173H166.773V17.3967C166.773 19.1719 166.186 21.9511 161.595 23.3835L161.386 23.0897C163.455 21.3757 163.639 19.2087 163.639 17.4089V14.2748L167.287 15.5725H168.793L169.797 14.5319C167.312 12.3649 165.39 9.50001 164.288 5.59451L164.668 5.38638C165.378 6.99021 166.418 8.34917 167.716 9.50001C168.634 8.31244 169.675 6.80656 170.177 5.82713L173.495 8.01861C173.311 8.31244 173.078 8.43487 172.368 8.28796C171.364 8.87562 169.846 9.58571 168.426 10.1244C169.369 10.9202 170.471 11.5691 171.597 12.169C172.491 11.0426 173.433 9.59795 173.874 8.67973L177.192 10.8957L177.229 10.859Z" fill="#3E3A39"/>
<path fill-rule="evenodd" clip-rule="evenodd" d="M11.4104 26.0646L12.9775 25.1586L15.0099 23.9833V10.6386L19.0868 8.28792V25.6238L20.6539 23.9343V3.42749L22.221 2.52152V22.2448L25.7592 18.425L26.2122 19.0984V3.403C27.9874 4.43141 29.7626 5.45981 31.5379 6.47597V18.7801L27.7793 20.9471V21.4L32.5907 28.4764L33.105 28.5621V19.6738L36.2391 21.4857V29.8476C37.6471 31.4025 39.055 32.9573 40.4752 34.4877V22.1224L33.105 17.8741V5.57C29.8851 3.70908 26.6774 1.8604 23.4575 -0.000518799C22.0006 0.84424 20.5314 1.689 19.0745 2.53376V6.48821L9.8311 11.8261V26.9706L6.81934 28.7091V34.0592L11.3982 29.0151V26.0523L11.4104 26.0646Z" fill="#00A29A"/>
<path fill-rule="evenodd" clip-rule="evenodd" d="M47.3066 43.1068C43.0093 38.8095 39.0181 34.4756 34.929 29.9334L31.9907 29.4315L25.6366 20.0901L15.3403 31.2067L13.6631 28.0848C8.90059 33.3125 4.75024 37.8791 0 43.119H10.9207L14.5201 38.883L12.953 37.0955L25.2693 22.5999L19.6866 33.7043L24.2532 30.1293L19.6131 36.6915L22.9922 36.3242L19.4907 43.1068H29.9094L27.8526 34.953L32.1866 43.1068H47.3066ZM28.881 28.4888L37.0715 36.6181L32.1376 36.5079L33.3252 34.9653L28.881 28.4888Z" fill="#3CAE68"/>
<path d="M56.4645 38.626C56.3788 38.675 56.3053 38.724 56.2318 38.7974C56.1584 38.8709 56.0849 38.9443 56.0237 39.0423C55.9625 39.1402 55.889 39.2382 55.8033 39.3606C55.7544 39.4463 55.6809 39.5565 55.583 39.6912C55.485 39.8258 55.3993 39.9727 55.3014 40.1197C55.2034 40.2666 55.1177 40.4135 55.0198 40.5482C54.9341 40.6828 54.8606 40.793 54.8117 40.8665V42.1642C54.8117 42.2867 54.8117 42.4091 54.8117 42.5315C54.8117 42.6539 54.8362 42.7274 54.8729 42.7764C54.9341 42.8743 55.0198 42.9355 55.1177 42.96C55.2157 42.9845 55.3136 43.009 55.4116 43.0335V43.0947H53.4282V43.0335C53.5384 43.0212 53.6364 42.9967 53.7221 42.9723C53.8078 42.9478 53.8935 42.8743 53.9914 42.7641C54.0159 42.7396 54.0281 42.7029 54.0404 42.6539C54.0404 42.605 54.0649 42.5438 54.0649 42.4825C54.0649 42.4213 54.0649 42.3479 54.0771 42.2744C54.0893 42.201 54.0771 42.1275 54.0771 42.0663C54.0771 41.9439 54.0771 41.8092 54.0771 41.6378C54.0771 41.4786 54.0771 41.2705 54.0771 41.0379C54.0771 41.0256 54.0404 40.9889 54.0036 40.9154C53.9669 40.842 53.9057 40.7685 53.8445 40.6583C53.7833 40.5604 53.7098 40.4502 53.6364 40.3155C53.5629 40.1931 53.4894 40.0707 53.416 39.9483C53.3425 39.8258 53.2691 39.7156 53.2078 39.6177C53.1466 39.5198 53.0854 39.4341 53.0487 39.3606C52.963 39.2382 52.8895 39.128 52.8283 39.0178C52.7671 38.9076 52.6936 38.8219 52.6202 38.7607C52.5467 38.6872 52.4855 38.626 52.4121 38.5893C52.3386 38.5526 52.2651 38.5281 52.1794 38.5158V38.4546H54.1261V38.5158C54.0649 38.5158 54.0036 38.5158 53.9302 38.5403C53.869 38.5403 53.8078 38.5648 53.7465 38.577C53.6853 38.5893 53.6486 38.626 53.6119 38.6505C53.5751 38.6872 53.5629 38.724 53.5629 38.7852C53.5629 38.8464 53.5996 38.9321 53.6608 39.0423C53.7221 39.1525 53.7833 39.2749 53.8567 39.3851C53.9057 39.4585 53.9547 39.5565 54.0281 39.6667C54.0893 39.7769 54.1628 39.887 54.2363 40.0095C54.3097 40.1319 54.3954 40.2543 54.4689 40.389C54.5423 40.5114 54.6158 40.6339 54.6892 40.7563C54.7505 40.6706 54.8117 40.5726 54.8974 40.4502C54.9831 40.3278 55.0565 40.1931 55.1422 40.0584C55.2279 39.9238 55.3014 39.8013 55.3748 39.6789C55.4483 39.5565 55.5095 39.4585 55.5462 39.3973C55.5707 39.3606 55.5952 39.3239 55.6197 39.2749C55.6442 39.2259 55.6687 39.177 55.6932 39.128C55.7176 39.079 55.7421 39.03 55.7544 38.9811C55.7666 38.9321 55.7789 38.8831 55.7789 38.8342C55.7789 38.7607 55.7666 38.7117 55.7299 38.675C55.6932 38.6383 55.6564 38.6015 55.5952 38.5893C55.5462 38.5648 55.485 38.5526 55.4238 38.5403C55.3626 38.5403 55.3014 38.5158 55.2402 38.5158V38.4546H56.7216V38.5158C56.5991 38.5281 56.5012 38.5648 56.4155 38.6015L56.4645 38.626Z" fill="#3E3A39"/>
<path d="M61.4841 38.6626C61.3861 38.7238 61.3249 38.8095 61.2637 38.9442C61.2514 38.9687 61.2392 39.0176 61.2269 39.0911C61.2269 39.1646 61.2025 39.238 61.2025 39.3237C61.2025 39.4094 61.1902 39.5074 61.178 39.6053C61.1657 39.7032 61.178 39.8012 61.178 39.8991C61.178 40.0828 61.178 40.2909 61.1657 40.5113C61.1657 40.7439 61.1535 41.001 61.1412 41.2826C61.1412 41.3683 61.1413 41.4662 61.129 41.5887C61.1168 41.7111 61.1045 41.8458 61.0678 41.9804C61.0311 42.1151 60.9821 42.262 60.9086 42.3967C60.8352 42.5314 60.725 42.666 60.5903 42.7762C60.4556 42.8864 60.272 42.9843 60.0639 43.0456C59.8557 43.1068 59.5864 43.1435 59.2681 43.1435C58.9498 43.1435 58.7049 43.1068 58.4845 43.0456C58.2642 42.9843 58.0928 42.8986 57.9581 42.7885C57.8234 42.6783 57.7132 42.5558 57.6398 42.4334C57.5663 42.2987 57.5051 42.1763 57.4684 42.0539C57.4316 41.9315 57.4072 41.809 57.4072 41.7111C57.4072 41.6009 57.4072 41.5274 57.4072 41.4785C57.4072 41.356 57.4072 41.1969 57.4072 41.0132C57.4072 40.8173 57.4072 40.6092 57.4072 40.3766V39.287C57.4072 39.2135 57.4072 39.1401 57.4072 39.0666C57.4072 39.0054 57.3949 38.9442 57.3827 38.883C57.3704 38.834 57.3459 38.785 57.3215 38.7605C57.2602 38.6871 57.1868 38.6381 57.1011 38.6014C57.0154 38.5646 56.9174 38.5524 56.8073 38.5402V38.4789H58.7171V38.5402C58.7171 38.5402 58.5947 38.5646 58.5213 38.5769C58.4478 38.5891 58.3866 38.6259 58.3376 38.6626C58.2764 38.6993 58.2397 38.7483 58.1907 38.8095C58.154 38.8707 58.1295 38.9564 58.1295 39.0544C58.1295 39.1646 58.1295 39.2625 58.1295 39.3482C58.1295 39.4339 58.1295 39.5196 58.1295 39.6053V40.8786C58.1295 40.9765 58.1295 41.0744 58.1295 41.1601C58.1295 41.2581 58.1295 41.356 58.1295 41.454C58.1295 41.6866 58.1662 41.8825 58.2274 42.0784C58.2886 42.262 58.3866 42.4212 58.4968 42.5558C58.607 42.6905 58.7539 42.7885 58.9253 42.8619C59.0967 42.9354 59.2803 42.9721 59.5007 42.9721C59.7456 42.9721 59.9537 42.9476 60.1251 42.8864C60.2965 42.8252 60.4312 42.7517 60.5536 42.6538C60.6638 42.5558 60.7617 42.4457 60.8229 42.311C60.8841 42.1886 60.9331 42.0416 60.9698 41.8947C61.0066 41.7478 61.0188 41.6009 61.0311 41.454C61.0311 41.3071 61.0433 41.1479 61.0433 41.001V39.9114C61.0433 39.8257 61.0433 39.74 61.0433 39.642C61.0433 39.5441 61.0433 39.4706 61.0433 39.3849C61.0433 39.2992 61.0433 39.2258 61.0188 39.1523C61.0188 39.0789 60.9943 39.0299 60.9821 38.9809C60.9454 38.8585 60.8597 38.7605 60.7617 38.6871C60.6515 38.6136 60.5046 38.5646 60.2965 38.5279V38.4667H61.8881V38.5279C61.7289 38.5524 61.6065 38.5891 61.5085 38.6503L61.4841 38.6626Z" fill="#3E3A39"/>
<path d="M66.1119 43.1068H62.1819V43.0455C62.2921 43.0333 62.39 42.9966 62.4757 42.9598C62.5737 42.9231 62.6471 42.8619 62.7083 42.8007C62.7328 42.7762 62.7451 42.7395 62.7573 42.6905C62.7695 42.6415 62.7818 42.5803 62.794 42.5191C62.794 42.4579 62.8185 42.3844 62.8185 42.311C62.8185 42.2375 62.8185 42.1763 62.8185 42.1028C62.8185 42.0416 62.8185 41.9559 62.8185 41.858C62.8185 41.76 62.8185 41.6376 62.8185 41.5152C62.8185 41.3928 62.8185 41.2703 62.8185 41.1357V39.5073C62.8185 39.4339 62.8185 39.3482 62.8185 39.2747C62.8185 39.189 62.8185 39.1156 62.8063 39.0421C62.8063 38.9687 62.794 38.9074 62.7695 38.8462C62.7573 38.785 62.7328 38.7483 62.7083 38.7238C62.6471 38.6503 62.5737 38.6136 62.5002 38.5891C62.4267 38.5646 62.3288 38.5524 62.2186 38.5402V38.4789H65.7691L66.2098 39.5441L66.1486 39.5808C65.8058 39.1523 65.4752 38.8585 65.1692 38.7116C65.0957 38.6748 64.961 38.6503 64.7651 38.6259C64.5693 38.6014 64.3244 38.5891 64.0428 38.5891C63.9571 38.5891 63.8592 38.5891 63.7612 38.5891C63.6633 38.5891 63.5898 38.6014 63.5531 38.6136C63.5531 38.6871 63.5408 38.8217 63.5286 39.0421C63.5164 39.2625 63.5286 39.5073 63.5286 39.7889V40.2052C63.5286 40.3154 63.5286 40.4133 63.5286 40.4745C63.5286 40.548 63.5286 40.597 63.5286 40.6337V40.7072H63.651C63.7123 40.7072 63.7857 40.7072 63.8714 40.7072C63.9571 40.7072 64.0428 40.7072 64.1163 40.6949C64.202 40.6949 64.2632 40.6827 64.3244 40.6704C64.4468 40.6459 64.557 40.597 64.6427 40.548C64.7284 40.499 64.8019 40.4378 64.8508 40.3644C64.8998 40.2909 64.9488 40.2052 64.9733 40.1072C65.01 40.0093 65.0345 39.8991 65.059 39.7767H65.1324V41.7968H65.059C65.0222 41.6621 64.9733 41.5152 64.8998 41.3683C64.8264 41.2214 64.7529 41.1112 64.6794 41.0377C64.606 40.9765 64.5325 40.9275 64.4346 40.8908C64.3366 40.8541 64.2265 40.8296 64.0918 40.8173C64.0306 40.8173 63.9694 40.8173 63.9326 40.8173C63.8959 40.8173 63.8469 40.8173 63.8102 40.8173H63.5164C63.5164 40.8173 63.5041 40.9643 63.5041 41.0744V41.8457C63.5041 41.9192 63.5041 41.9804 63.5041 42.0416C63.5041 42.1028 63.5041 42.1518 63.5041 42.2008C63.5041 42.3355 63.5041 42.4701 63.5286 42.5926C63.5531 42.715 63.5653 42.8007 63.6021 42.8619C63.6388 42.9231 63.7367 42.9598 63.8837 42.9843C64.0306 43.0088 64.1897 43.0211 64.3611 43.0211C64.4346 43.0211 64.5325 43.0211 64.6427 43.0211C64.7529 43.0211 64.8753 43.0088 64.9978 42.9843C65.1324 42.9721 65.2671 42.9354 65.3773 42.8864C65.4875 42.8374 65.6099 42.764 65.7078 42.6783C65.8058 42.5926 65.916 42.4824 66.0139 42.3477C66.1119 42.213 66.2221 42.0539 66.32 41.8702L66.3935 41.8947L66.0751 43.119L66.1119 43.1068Z" fill="#3E3A39"/>
<path d="M71.3029 42.3844C71.2172 42.5436 71.107 42.6905 70.9601 42.8007C70.8132 42.9109 70.6418 42.9966 70.4336 43.0578C70.2255 43.1068 70.0051 43.1435 69.7603 43.1435C69.5521 43.1435 69.3685 43.1313 69.2216 43.1068C69.0747 43.0823 68.9522 43.0456 68.8543 43.0088C68.7564 42.9721 68.6829 42.9354 68.6339 42.9109C68.585 42.8864 68.5482 42.8619 68.536 42.8619C68.5237 42.8619 68.4993 42.8864 68.4503 42.9354C68.4013 42.9843 68.3646 43.0333 68.3401 43.0823H68.2789L68.2544 41.809H68.3156C68.3523 41.9192 68.4013 42.0416 68.4625 42.1518C68.5237 42.262 68.585 42.3599 68.6584 42.4579C68.7319 42.5558 68.8053 42.6415 68.8788 42.715C68.9522 42.7885 69.0379 42.8497 69.1114 42.8864C69.1849 42.9231 69.2828 42.9599 69.4052 42.9966C69.5277 43.0333 69.6379 43.0578 69.748 43.0578C70.0664 43.0578 70.3235 42.9721 70.5193 42.8007C70.7152 42.6293 70.8132 42.3967 70.8132 42.0906C70.8132 41.9682 70.7887 41.8702 70.752 41.7723C70.7152 41.6866 70.6663 41.6009 70.5928 41.5397C70.5316 41.4785 70.4459 41.4172 70.3602 41.3683C70.2745 41.3193 70.1765 41.2826 70.0664 41.2458C69.9684 41.2091 69.8705 41.1724 69.797 41.1479C69.7235 41.1234 69.6501 41.0989 69.5766 41.0744C69.5154 41.05 69.442 41.0255 69.3685 41.001C69.295 40.9765 69.2093 40.952 69.1114 40.903C69.0012 40.8541 68.891 40.8051 68.7931 40.7316C68.6951 40.6582 68.5972 40.5725 68.5237 40.4745C68.4503 40.3766 68.3891 40.2664 68.3401 40.144C68.2911 40.0216 68.2666 39.8869 68.2666 39.7522C68.2666 39.5196 68.3034 39.3237 68.3891 39.1523C68.4748 38.9809 68.585 38.8462 68.7319 38.736C68.8788 38.6259 69.0379 38.5402 69.2216 38.4912C69.4052 38.4422 69.6011 38.4055 69.8093 38.4055C70.0051 38.4055 70.1643 38.4177 70.299 38.4545C70.4336 38.4912 70.5438 38.5279 70.6418 38.5646C70.7397 38.6014 70.8009 38.6381 70.8377 38.6748C70.8866 38.7116 70.9111 38.7238 70.9111 38.7238C70.9234 38.7238 70.9478 38.6993 70.9968 38.6503C71.0458 38.6014 71.0703 38.5524 71.107 38.4912H71.1805V39.6787H71.107C71.058 39.5318 70.9846 39.3972 70.9111 39.2625C70.8254 39.1278 70.7397 38.9931 70.6295 38.8952C70.5193 38.7973 70.3969 38.6993 70.2622 38.6259C70.1276 38.5524 69.9684 38.5279 69.8093 38.5279C69.6746 38.5279 69.5521 38.5524 69.4297 38.5891C69.3073 38.6259 69.2093 38.6871 69.1236 38.7605C69.0379 38.834 68.9645 38.9319 68.9155 39.0421C68.8665 39.1523 68.8421 39.287 68.8421 39.4339C68.8421 39.6665 68.9155 39.8379 69.0502 39.9848C69.1849 40.1195 69.3685 40.2297 69.5766 40.3154C69.6623 40.3521 69.748 40.3766 69.8215 40.4011C69.895 40.4256 69.9684 40.4501 70.0419 40.4745C70.1153 40.499 70.1888 40.5235 70.2622 40.548C70.3357 40.5725 70.4092 40.597 70.4949 40.6337C70.7887 40.7439 71.0091 40.8908 71.1682 41.0989C71.3274 41.3071 71.4131 41.5519 71.4131 41.858C71.4131 42.0661 71.3764 42.2498 71.2906 42.4089L71.3029 42.3844Z" fill="#3E3A39"/>
<path d="M75.2207 43.1068V43.0455C75.3799 43.0333 75.5146 43.0088 75.6248 42.9598C75.7349 42.9109 75.8084 42.8619 75.8329 42.8129C75.8329 42.8129 75.8451 42.7762 75.8574 42.7395C75.8696 42.7027 75.8574 42.6538 75.8696 42.6048C75.8819 42.5558 75.8696 42.4946 75.8696 42.4456C75.8696 42.3844 75.8696 42.3355 75.8696 42.2865C75.8696 42.1396 75.8696 42.0049 75.8696 41.8457V40.8296H73.3353V42.213C73.3353 42.3355 73.3353 42.4579 73.3353 42.5681C73.3353 42.6783 73.3598 42.764 73.3965 42.8129C73.4455 42.8864 73.519 42.9476 73.6169 42.9843C73.7149 43.0211 73.8006 43.0455 73.8985 43.0578V43.119H72.0009V43.0578C72.111 43.0455 72.209 43.0088 72.3069 42.9721C72.4049 42.9354 72.4783 42.8864 72.5273 42.8252C72.5395 42.8007 72.564 42.764 72.564 42.715C72.564 42.666 72.5885 42.6048 72.5885 42.5436C72.5885 42.4824 72.5885 42.4089 72.6008 42.3355C72.6008 42.262 72.6008 42.1885 72.6008 42.1151C72.6008 42.0539 72.6008 41.9682 72.6008 41.8702C72.6008 41.7723 72.6008 41.6499 72.6008 41.5274C72.6008 41.405 72.6008 41.2826 72.6008 41.1479V39.287C72.6008 39.2135 72.6008 39.1401 72.6008 39.0666C72.6008 39.0054 72.5885 38.9442 72.5763 38.883C72.564 38.834 72.5395 38.785 72.5151 38.7605C72.4538 38.6871 72.3804 38.6381 72.2947 38.6014C72.209 38.5646 72.111 38.5524 72.0009 38.5402V38.4789H73.9107V38.5402C73.9107 38.5402 73.7883 38.5646 73.7149 38.5769C73.6414 38.5891 73.5802 38.6259 73.5312 38.6626C73.47 38.6993 73.4333 38.7483 73.3843 38.8095C73.3476 38.8707 73.3231 38.9564 73.3231 39.0544C73.3231 39.2013 73.3231 39.3604 73.3231 39.5441C73.3231 39.7155 73.3231 39.8869 73.3231 40.046V40.6949H75.8574V39.6665C75.8574 39.5563 75.8574 39.4339 75.8574 39.287C75.8574 39.2013 75.8574 39.1278 75.8451 39.0299C75.8451 38.9442 75.8206 38.8707 75.7839 38.8095C75.7105 38.6993 75.6248 38.6259 75.5146 38.5891C75.4044 38.5524 75.3187 38.5402 75.2207 38.5402V38.4789H77.1551V38.5402C77.0572 38.5402 76.947 38.5769 76.849 38.6259C76.7511 38.6748 76.6776 38.736 76.6287 38.8217C76.6164 38.8462 76.6042 38.8952 76.5919 38.9442C76.5919 38.9931 76.5797 39.0544 76.5675 39.1278C76.5675 39.189 76.5675 39.2625 76.5675 39.3359V41.4417C76.5675 41.5642 76.5675 41.6866 76.5675 41.809C76.5675 41.9437 76.5675 42.0784 76.5675 42.2375C76.5675 42.3599 76.5675 42.4824 76.5675 42.5803C76.5675 42.6783 76.5919 42.7517 76.6164 42.8007C76.6776 42.8864 76.7511 42.9476 76.8368 42.9843C76.9347 43.0211 77.0327 43.0455 77.1429 43.0578V43.119H75.1718L75.2207 43.1068Z" fill="#3E3A39"/>
<path d="M81.7094 43.1068H77.7794V43.0455C77.8896 43.0333 77.9876 42.9966 78.0733 42.9598C78.1712 42.9231 78.2447 42.8619 78.3059 42.8007C78.3304 42.7762 78.3426 42.7395 78.3548 42.6905C78.3671 42.6415 78.3793 42.5803 78.3916 42.5191C78.3916 42.4579 78.4161 42.3844 78.4161 42.311C78.4161 42.2375 78.4161 42.1763 78.4161 42.1028C78.4161 42.0416 78.4161 41.9559 78.4161 41.858C78.4161 41.76 78.4161 41.6376 78.4161 41.5152C78.4161 41.3928 78.4161 41.2703 78.4161 41.1357V39.5073C78.4161 39.4339 78.4161 39.3482 78.4161 39.2747C78.4161 39.189 78.4161 39.1156 78.4038 39.0421C78.4038 38.9687 78.3916 38.9074 78.3671 38.8462C78.3548 38.785 78.3304 38.7483 78.3059 38.7238C78.2447 38.6503 78.1712 38.6136 78.0977 38.5891C78.0243 38.5646 77.9263 38.5524 77.8162 38.5402V38.4789H81.3666L81.8073 39.5441L81.7461 39.5808C81.4033 39.1523 81.0728 38.8585 80.7667 38.7116C80.6932 38.6748 80.5586 38.6503 80.3627 38.6259C80.1668 38.6014 79.9219 38.5891 79.6404 38.5891C79.5546 38.5891 79.4567 38.5891 79.3588 38.5891C79.2608 38.5891 79.1874 38.6014 79.1506 38.6136C79.1506 38.6871 79.1384 38.8217 79.1261 39.0421C79.1139 39.2625 79.1261 39.5073 79.1261 39.7889V40.2052C79.1261 40.3154 79.1261 40.4133 79.1261 40.4745C79.1261 40.548 79.1261 40.597 79.1261 40.6337V40.7072H79.2486C79.3098 40.7072 79.3832 40.7072 79.469 40.7072C79.5547 40.7072 79.6403 40.7072 79.7138 40.6949C79.7995 40.6949 79.8607 40.6827 79.9219 40.6704C80.0444 40.6459 80.1546 40.597 80.2403 40.548C80.326 40.499 80.3994 40.4378 80.4484 40.3644C80.4974 40.2909 80.5463 40.2052 80.5708 40.1072C80.6075 40.0093 80.632 39.8991 80.6565 39.7767H80.73V41.7968H80.6565C80.6198 41.6621 80.5708 41.5152 80.4974 41.3683C80.4239 41.2214 80.3504 41.1112 80.277 41.0377C80.2035 40.9765 80.1301 40.9275 80.0321 40.8908C79.9342 40.8541 79.824 40.8296 79.6893 40.8173C79.6281 40.8173 79.5669 40.8173 79.5302 40.8173C79.4934 40.8173 79.4445 40.8173 79.4077 40.8173H79.1139C79.1139 40.8173 79.1017 40.9643 79.1017 41.0744V41.8457C79.1017 41.9192 79.1017 41.9804 79.1017 42.0416C79.1017 42.1028 79.1017 42.1518 79.1017 42.2008C79.1017 42.3355 79.1017 42.4701 79.1261 42.5926C79.1506 42.715 79.1629 42.8007 79.1996 42.8619C79.2363 42.9231 79.3343 42.9598 79.4812 42.9843C79.6281 43.0088 79.7873 43.0211 79.9587 43.0211C80.0321 43.0211 80.1301 43.0211 80.2403 43.0211C80.3504 43.0211 80.4729 43.0088 80.5953 42.9843C80.73 42.9721 80.8646 42.9354 80.9748 42.8864C81.085 42.8374 81.2074 42.764 81.3054 42.6783C81.4033 42.5926 81.5135 42.4824 81.6115 42.3477C81.7094 42.213 81.8196 42.0539 81.9175 41.8702L81.991 41.8947L81.6727 43.119L81.7094 43.1068Z" fill="#3E3A39"/>
<path d="M87.1331 38.6626C87.0351 38.7238 86.9616 38.8095 86.9127 38.9442C86.8882 39.0054 86.8637 39.1278 86.8515 39.2992C86.8515 39.4706 86.8392 39.6543 86.827 39.8501C86.827 40.0338 86.8147 40.2542 86.8025 40.499C86.8025 40.7439 86.8025 41.0132 86.8025 41.3071V41.7233C86.8025 41.8702 86.8025 42.0294 86.8025 42.1885C86.8025 42.3477 86.8025 42.4946 86.8025 42.6538V43.07C86.8025 43.07 86.8025 43.1068 86.7902 43.1068C86.778 43.1068 86.7658 43.119 86.7413 43.119C86.7045 43.119 86.6678 43.0945 86.6311 43.0578C86.2638 42.6415 85.9332 42.2498 85.6394 41.907C85.3456 41.5642 85.0517 41.2214 84.7824 40.903C84.5131 40.5847 84.2437 40.2664 83.9866 39.9726C83.7295 39.6665 83.4479 39.3482 83.1541 39.0299V41.7478C83.1541 41.9682 83.1541 42.1641 83.1663 42.3355C83.1663 42.5069 83.2031 42.6415 83.252 42.7272C83.301 42.8252 83.3745 42.8986 83.4724 42.9476C83.5703 42.9966 83.705 43.0333 83.8887 43.0578V43.119H82.3093V43.0578C82.4073 43.0455 82.5175 43.0211 82.6154 42.9721C82.7133 42.9231 82.799 42.8619 82.8603 42.764C82.9215 42.6783 82.9582 42.5436 82.9704 42.3599C82.9827 42.1885 82.9949 41.9804 83.0072 41.7356C83.0072 41.5519 83.0194 41.3315 83.0317 41.0867C83.0317 40.8418 83.0317 40.5725 83.0317 40.2786V39.4951C83.0317 39.4094 83.0317 39.2992 83.0317 39.1768C83.0194 39.0544 82.9827 38.9564 82.946 38.8707C82.897 38.7973 82.848 38.7238 82.7746 38.6871C82.7133 38.6381 82.6399 38.6136 82.5664 38.5891C82.493 38.5646 82.4195 38.5524 82.3461 38.5524V38.4912H83.6561L86.7045 42.0539V39.8624C86.7045 39.691 86.7045 39.5318 86.7045 39.3727C86.7045 39.2135 86.6801 39.0911 86.6433 39.0054C86.6066 38.883 86.5209 38.785 86.4107 38.7116C86.3005 38.6381 86.1414 38.5891 85.9332 38.5524V38.4912H87.5248V38.5524C87.3657 38.5769 87.2432 38.6136 87.1453 38.6748L87.1331 38.6626Z" fill="#3E3A39"/>
<path d="M92.5443 41.0132C92.4586 41.0377 92.3974 41.0867 92.3607 41.1479C92.3362 41.1969 92.3117 41.2703 92.3117 41.3683C92.3117 41.4662 92.3117 41.5641 92.3117 41.6621V42.6048C92.3117 42.6048 92.2138 42.6782 92.0914 42.7272C91.9689 42.7762 91.8343 42.8496 91.6629 42.9109C91.4915 42.9721 91.3078 43.021 91.0997 43.07C90.8915 43.119 90.6834 43.1312 90.4875 43.1312C90.0835 43.1312 89.7162 43.0823 89.3979 42.9721C89.0796 42.8619 88.8102 42.715 88.5899 42.5068C88.3695 42.2987 88.1981 42.0539 88.0879 41.76C87.9655 41.4662 87.9165 41.1356 87.9165 40.7683C87.9165 40.6582 87.9165 40.5357 87.9532 40.4011C87.9777 40.2664 88.0145 40.1195 88.0634 39.9603C88.1124 39.8012 88.1859 39.6542 88.2838 39.4951C88.3817 39.3359 88.5042 39.189 88.6511 39.0421C88.8592 38.834 89.1041 38.6748 89.4101 38.5524C89.7162 38.43 90.0713 38.3687 90.4998 38.3687C90.7569 38.3687 90.9895 38.3932 91.1854 38.43C91.3813 38.4789 91.5527 38.5279 91.6873 38.5769C91.822 38.6258 91.9322 38.6748 91.9934 38.7238C92.0669 38.7728 92.1036 38.7972 92.1158 38.7972C92.1158 38.7972 92.1526 38.7728 92.1893 38.7238C92.226 38.6748 92.275 38.6136 92.3362 38.5401H92.3974V39.9358H92.324C92.275 39.7399 92.2015 39.5563 92.1158 39.3849C92.0179 39.2135 91.9199 39.0788 91.8098 38.9564C91.6751 38.8095 91.4914 38.6871 91.2833 38.6014C91.0629 38.5157 90.8303 38.4667 90.561 38.4667C90.2794 38.4667 90.0223 38.5279 89.8019 38.6626C89.5693 38.785 89.3857 38.9564 89.2265 39.1645C89.0673 39.3727 88.9449 39.6175 88.8592 39.8991C88.7735 40.1807 88.7368 40.4623 88.7368 40.7683C88.7368 41.0989 88.7735 41.405 88.8592 41.6866C88.9449 41.9681 89.0551 42.2008 89.2143 42.3967C89.3734 42.5925 89.5571 42.7517 89.7774 42.8619C89.9978 42.9721 90.2549 43.021 90.5365 43.021C90.7446 43.021 90.9283 42.9843 91.1119 42.9109C91.2956 42.8374 91.4302 42.7272 91.5282 42.5681C91.5649 42.5191 91.5894 42.4089 91.6016 42.2742C91.6139 42.1273 91.6261 41.9926 91.6261 41.8335C91.6261 41.6743 91.6261 41.5519 91.6016 41.4295C91.5894 41.307 91.5404 41.2091 91.467 41.1356C91.369 41.0254 91.1976 40.952 90.9528 40.9397V40.8785H92.8382V40.9397C92.7647 40.9397 92.6913 40.9642 92.6056 40.9887L92.5443 41.0132Z" fill="#3E3A39"/>
<path d="M98.9475 39.9726C98.8863 39.7644 98.8128 39.5686 98.7026 39.3972C98.5925 39.2135 98.4578 39.0666 98.3109 38.9319C98.164 38.7973 97.9925 38.6993 97.7967 38.6136C97.6008 38.5402 97.4049 38.5034 97.1845 38.5034C96.8907 38.5034 96.6213 38.5646 96.3887 38.6993C96.1561 38.834 95.9602 39.0054 95.8011 39.2258C95.6419 39.4461 95.5195 39.691 95.446 39.9726C95.3726 40.2542 95.3236 40.5357 95.3236 40.8296C95.3236 41.1356 95.3726 41.4295 95.4583 41.6988C95.544 41.9682 95.6664 42.2008 95.8378 42.3967C95.9969 42.5926 96.1928 42.7517 96.4255 42.8741C96.6581 42.9843 96.9152 43.0455 97.1968 43.0455C97.4171 43.0455 97.6253 43.0088 97.8212 42.9231C98.017 42.8374 98.1884 42.7395 98.3354 42.6048C98.4823 42.4701 98.6169 42.3232 98.7149 42.1396C98.8251 41.9682 98.8863 41.7845 98.9353 41.6009H99.0087L98.9842 43.0211H98.9108C98.8618 42.9476 98.8006 42.8864 98.7516 42.8252C98.6904 42.764 98.6537 42.7395 98.6414 42.7395C98.6414 42.7395 98.5925 42.764 98.5312 42.8129C98.4578 42.8619 98.3598 42.9109 98.2374 42.9598C98.115 43.0088 97.9558 43.0578 97.7722 43.1068C97.5885 43.1557 97.3804 43.168 97.1355 43.168C96.7315 43.168 96.3765 43.1068 96.0582 42.9966C95.7398 42.8864 95.4583 42.7272 95.2379 42.5191C95.0175 42.311 94.8461 42.0661 94.7237 41.7723C94.6013 41.4784 94.54 41.1601 94.54 40.8173C94.54 40.7439 94.54 40.6582 94.5523 40.5602C94.5523 40.4623 94.5768 40.3521 94.6135 40.2419C94.638 40.1317 94.6747 40.0093 94.7237 39.8869C94.7727 39.7644 94.8339 39.642 94.9073 39.5196C94.993 39.3727 95.1032 39.238 95.2379 39.1033C95.3726 38.9687 95.5317 38.8585 95.7031 38.7483C95.8745 38.6381 96.0826 38.5646 96.3153 38.5034C96.5479 38.4422 96.7927 38.4177 97.0743 38.4177C97.3314 38.4177 97.5518 38.4422 97.7477 38.4912C97.9436 38.5402 98.1027 38.5891 98.2252 38.6503C98.3476 38.7116 98.4578 38.7605 98.519 38.8095C98.5925 38.8585 98.6292 38.883 98.6292 38.883C98.6292 38.883 98.6537 38.883 98.6782 38.8585C98.7026 38.834 98.7271 38.8217 98.7516 38.785C98.7761 38.7605 98.8128 38.7238 98.8373 38.6871C98.8618 38.6503 98.8985 38.6136 98.923 38.5769H98.9965V40.0215H98.923L98.9475 39.9726Z" fill="#3E3A39"/>
<path d="M104.151 41.7111C104.028 42.0049 103.845 42.2497 103.624 42.4701C103.404 42.6782 103.147 42.8496 102.853 42.9598C102.559 43.07 102.253 43.1312 101.922 43.1312C101.592 43.1312 101.286 43.07 100.992 42.9598C100.698 42.8496 100.441 42.6905 100.233 42.4824C100.013 42.2742 99.8411 42.0294 99.7187 41.7355C99.5962 41.4417 99.535 41.1234 99.535 40.7806C99.535 40.4133 99.5962 40.0828 99.7309 39.7889C99.8656 39.4951 100.037 39.2502 100.27 39.0421C100.49 38.834 100.759 38.6871 101.065 38.5769C101.371 38.4667 101.69 38.4177 102.02 38.4177C102.388 38.4177 102.706 38.4789 103 38.6136C103.294 38.7483 103.538 38.9197 103.734 39.1278C103.93 39.3482 104.089 39.593 104.2 39.8746C104.31 40.1562 104.359 40.45 104.359 40.7561C104.359 41.0989 104.298 41.4172 104.163 41.7111H104.151ZM103.453 39.9726C103.392 39.7032 103.281 39.4706 103.147 39.2502C103.012 39.0299 102.841 38.8585 102.645 38.7238C102.449 38.5891 102.204 38.5157 101.935 38.5157C101.665 38.5157 101.42 38.5769 101.212 38.7238C101.004 38.8585 100.845 39.0299 100.71 39.2502C100.576 39.4584 100.478 39.7032 100.417 39.9848C100.355 40.2542 100.319 40.5357 100.319 40.8051C100.319 41.0744 100.355 41.3805 100.417 41.6498C100.49 41.9192 100.588 42.1518 100.723 42.3599C100.857 42.5681 101.029 42.7272 101.237 42.8496C101.445 42.9721 101.678 43.0333 101.947 43.0333C102.216 43.0333 102.449 42.9598 102.645 42.8252C102.841 42.6905 103.012 42.5068 103.147 42.2987C103.281 42.0906 103.379 41.8335 103.441 41.5641C103.502 41.2948 103.538 41.0255 103.538 40.7561C103.538 40.4868 103.502 40.2297 103.441 39.9603L103.453 39.9726Z" fill="#3E3A39"/>
<path d="M109.587 38.6626C109.489 38.7238 109.415 38.8095 109.366 38.9442C109.342 39.0054 109.317 39.1278 109.305 39.2992C109.305 39.4706 109.293 39.6543 109.28 39.8501C109.28 40.0338 109.268 40.2542 109.256 40.499C109.256 40.7439 109.256 41.0132 109.256 41.3071V41.7233C109.256 41.8702 109.256 42.0294 109.256 42.1885C109.256 42.3477 109.256 42.4946 109.256 42.6538V43.07C109.256 43.07 109.256 43.1068 109.244 43.1068C109.232 43.1068 109.219 43.119 109.195 43.119C109.158 43.119 109.121 43.0945 109.085 43.0578C108.717 42.6415 108.387 42.2498 108.093 41.907C107.799 41.5642 107.505 41.2214 107.236 40.903C106.967 40.5847 106.697 40.2664 106.44 39.9726C106.183 39.6665 105.901 39.3482 105.608 39.0299V41.7478C105.608 41.9682 105.608 42.1641 105.62 42.3355C105.62 42.5069 105.657 42.6415 105.706 42.7272C105.754 42.8252 105.828 42.8986 105.926 42.9476C106.024 42.9966 106.159 43.0333 106.342 43.0578V43.119H104.763V43.0578C104.861 43.0455 104.971 43.0211 105.069 42.9721C105.167 42.9231 105.253 42.8619 105.314 42.764C105.375 42.6783 105.412 42.5436 105.424 42.3599C105.436 42.1885 105.448 41.9804 105.461 41.7356C105.461 41.5519 105.473 41.3315 105.485 41.0867C105.485 40.8418 105.485 40.5725 105.485 40.2786V39.4951C105.485 39.4094 105.485 39.2992 105.485 39.1768C105.473 39.0544 105.436 38.9564 105.399 38.8707C105.35 38.7973 105.302 38.7238 105.228 38.6871C105.167 38.6381 105.093 38.6136 105.02 38.5891C104.946 38.5646 104.873 38.5524 104.8 38.5524V38.4912H106.11L109.158 42.0539V39.8624C109.158 39.691 109.158 39.5318 109.158 39.3727C109.158 39.2135 109.134 39.0911 109.097 39.0054C109.06 38.883 108.974 38.785 108.864 38.7116C108.754 38.6381 108.595 38.5891 108.387 38.5524V38.4912H109.978V38.5524C109.819 38.5769 109.697 38.6136 109.599 38.6748L109.587 38.6626Z" fill="#3E3A39"/>
<path d="M113.615 42.3844C113.529 42.5436 113.419 42.6905 113.272 42.8007C113.125 42.9109 112.953 42.9966 112.745 43.0578C112.537 43.1068 112.317 43.1435 112.072 43.1435C111.864 43.1435 111.68 43.1313 111.533 43.1068C111.386 43.0823 111.264 43.0456 111.166 43.0088C111.068 42.9721 110.995 42.9354 110.946 42.9109C110.897 42.8864 110.86 42.8619 110.848 42.8619C110.835 42.8619 110.811 42.8864 110.762 42.9354C110.713 42.9843 110.676 43.0333 110.652 43.0823H110.591L110.566 41.809H110.627C110.664 41.9192 110.713 42.0416 110.774 42.1518C110.835 42.262 110.897 42.3599 110.97 42.4579C111.044 42.5558 111.117 42.6415 111.19 42.715C111.264 42.7885 111.35 42.8497 111.423 42.8864C111.497 42.9231 111.594 42.9599 111.717 42.9966C111.839 43.0333 111.949 43.0578 112.06 43.0578C112.378 43.0578 112.635 42.9721 112.831 42.8007C113.027 42.6293 113.125 42.3967 113.125 42.0906C113.125 41.9682 113.1 41.8702 113.064 41.7723C113.027 41.6866 112.978 41.6009 112.904 41.5397C112.843 41.4785 112.758 41.4172 112.672 41.3683C112.586 41.3193 112.488 41.2826 112.378 41.2458C112.28 41.2091 112.182 41.1724 112.109 41.1479C112.035 41.1234 111.962 41.0989 111.888 41.0744C111.827 41.05 111.754 41.0255 111.68 41.001C111.607 40.9765 111.521 40.952 111.423 40.903C111.313 40.8541 111.203 40.8051 111.105 40.7316C111.007 40.6582 110.909 40.5725 110.835 40.4745C110.762 40.3766 110.701 40.2664 110.652 40.144C110.603 40.0216 110.578 39.8869 110.578 39.7522C110.578 39.5196 110.615 39.3237 110.701 39.1523C110.786 38.9809 110.897 38.8462 111.044 38.736C111.19 38.6259 111.35 38.5402 111.533 38.4912C111.717 38.4422 111.913 38.4055 112.121 38.4055C112.317 38.4055 112.476 38.4177 112.611 38.4545C112.745 38.4912 112.855 38.5279 112.953 38.5646C113.051 38.6014 113.113 38.6381 113.149 38.6748C113.198 38.7116 113.223 38.7238 113.223 38.7238C113.235 38.7238 113.259 38.6993 113.308 38.6503C113.357 38.6014 113.382 38.5524 113.419 38.4912H113.492V39.6787H113.419C113.37 39.5318 113.296 39.3972 113.223 39.2625C113.137 39.1278 113.051 38.9931 112.941 38.8952C112.831 38.7973 112.709 38.6993 112.574 38.6259C112.439 38.5524 112.28 38.5279 112.121 38.5279C111.986 38.5279 111.864 38.5524 111.741 38.5891C111.619 38.6259 111.521 38.6871 111.435 38.7605C111.35 38.834 111.276 38.9319 111.227 39.0421C111.178 39.1523 111.154 39.287 111.154 39.4339C111.154 39.6665 111.227 39.8379 111.362 39.9848C111.497 40.1195 111.68 40.2297 111.888 40.3154C111.974 40.3521 112.06 40.3766 112.133 40.4011C112.207 40.4256 112.28 40.4501 112.354 40.4745C112.427 40.499 112.5 40.5235 112.574 40.548C112.647 40.5725 112.721 40.597 112.807 40.6337C113.1 40.7439 113.321 40.8908 113.48 41.0989C113.639 41.3071 113.725 41.5519 113.725 41.858C113.725 42.0661 113.688 42.2498 113.602 42.4089L113.615 42.3844Z" fill="#3E3A39"/>
<path d="M118.805 39.6788C118.769 39.6053 118.732 39.5196 118.683 39.4339C118.634 39.3482 118.585 39.2747 118.536 39.2013C118.487 39.1278 118.438 39.0544 118.389 38.9932C118.34 38.9319 118.304 38.883 118.267 38.8585C118.181 38.7728 118.083 38.7116 117.973 38.6871C117.863 38.6626 117.74 38.6381 117.569 38.6381C117.483 38.6381 117.422 38.6381 117.361 38.6381C117.3 38.6381 117.238 38.6381 117.177 38.6381H116.749C116.749 38.7483 116.749 38.8952 116.749 39.0789C116.749 39.2625 116.749 39.4584 116.749 39.6543V42.1641C116.749 42.2865 116.749 42.4089 116.749 42.5191C116.749 42.6293 116.773 42.715 116.81 42.764C116.871 42.8619 116.969 42.9231 117.079 42.9598C117.202 42.9966 117.3 43.0211 117.398 43.0333V43.0945H115.304V43.0333C115.414 43.0211 115.524 42.9966 115.622 42.9721C115.72 42.9476 115.83 42.8741 115.928 42.764C115.953 42.7395 115.965 42.7027 115.977 42.6538C115.977 42.6048 116.002 42.5558 116.002 42.4824C116.002 42.4212 116.002 42.3477 116.014 42.2742C116.014 42.2008 116.014 42.1273 116.014 42.0661C116.014 42.0049 116.014 41.9314 116.014 41.8335C116.014 41.7356 116.014 41.6254 116.014 41.5029C116.014 41.3805 116.014 41.2581 116.014 41.1357V38.6381H115.586C115.586 38.6381 115.475 38.6381 115.414 38.6381C115.353 38.6381 115.28 38.6381 115.194 38.6381C115.035 38.6381 114.9 38.6626 114.79 38.6993C114.68 38.7361 114.582 38.7973 114.496 38.883C114.459 38.9075 114.423 38.9564 114.374 39.0176C114.325 39.0789 114.276 39.1401 114.227 39.2135C114.178 39.287 114.129 39.3604 114.08 39.4461C114.031 39.5318 113.994 39.6053 113.97 39.6788L113.908 39.6543L114.104 38.43C114.202 38.4545 114.288 38.4667 114.374 38.4789C114.459 38.4912 114.582 38.5034 114.741 38.5034C114.9 38.5034 115.047 38.5034 115.182 38.5034C115.316 38.5034 115.439 38.5034 115.549 38.5034H116.773C116.896 38.5034 117.03 38.5034 117.14 38.5034C117.263 38.5034 117.385 38.5034 117.508 38.5034C117.63 38.5034 117.777 38.5034 117.948 38.5034C118.095 38.5034 118.206 38.4912 118.304 38.4667C118.401 38.4422 118.487 38.4177 118.585 38.3932L118.793 39.642L118.732 39.6665L118.805 39.6788Z" fill="#3E3A39"/>
<path d="M122.589 43.1068C122.589 43.1068 122.527 43.0455 122.503 43.0211C122.491 42.9966 122.466 42.9843 122.442 42.9598C122.417 42.9354 122.393 42.8986 122.356 42.8497C122.319 42.8007 122.27 42.7272 122.209 42.6293C122.123 42.5069 122.05 42.3967 121.989 42.311C121.928 42.2253 121.866 42.1151 121.805 42.0294C121.744 41.9314 121.67 41.8335 121.597 41.7478C121.524 41.6498 121.438 41.5397 121.328 41.4172C121.242 41.3193 121.144 41.2213 121.046 41.1356C120.948 41.0499 120.838 41.001 120.728 40.9765C120.642 40.9642 120.581 40.952 120.544 40.952C120.507 40.952 120.458 40.952 120.397 40.952V41.6743C120.397 41.8825 120.397 42.0539 120.397 42.2008C120.397 42.3355 120.397 42.4579 120.409 42.5558C120.409 42.6538 120.434 42.7395 120.483 42.8007C120.52 42.8619 120.581 42.9109 120.679 42.9721C120.777 43.0333 120.911 43.0578 121.095 43.07V43.1312H119.038V43.07C119.148 43.0578 119.246 43.0211 119.344 42.9966C119.442 42.9598 119.516 42.9109 119.577 42.8374C119.601 42.8129 119.614 42.7762 119.626 42.7272C119.638 42.6783 119.65 42.617 119.65 42.5558C119.65 42.4946 119.65 42.4212 119.663 42.3477C119.675 42.2742 119.663 42.2008 119.663 42.1396C119.663 42.0783 119.663 41.9927 119.663 41.8947C119.663 41.7968 119.663 41.6743 119.663 41.5519C119.663 41.4295 119.663 41.307 119.663 41.1724V39.5441C119.663 39.4706 119.663 39.3849 119.663 39.3114C119.663 39.2257 119.663 39.1523 119.65 39.0911C119.65 39.0176 119.638 38.9564 119.614 38.8952C119.601 38.834 119.577 38.7972 119.552 38.7728C119.491 38.6993 119.418 38.6626 119.332 38.6381C119.259 38.6136 119.161 38.5891 119.038 38.5769V38.5157H119.308C119.454 38.5157 119.614 38.5157 119.797 38.5157C119.981 38.5157 120.165 38.5157 120.348 38.5157H120.801C121.083 38.5157 121.34 38.5157 121.56 38.5401C121.781 38.5646 121.989 38.6136 122.172 38.7115C122.356 38.8095 122.515 38.9442 122.625 39.1156C122.736 39.287 122.797 39.4951 122.797 39.7522C122.797 39.9114 122.772 40.0583 122.711 40.1807C122.65 40.3031 122.576 40.4133 122.478 40.5113C122.381 40.6092 122.27 40.6949 122.136 40.7561C122.001 40.8173 121.879 40.8785 121.732 40.9275V40.952C121.805 40.9887 121.879 41.0499 121.94 41.1234C122.013 41.1969 122.074 41.2826 122.136 41.3683C122.246 41.5274 122.368 41.7111 122.503 41.8947C122.638 42.0784 122.748 42.2498 122.858 42.3967C123.017 42.617 123.176 42.7884 123.323 42.8864C123.47 42.9843 123.654 43.0578 123.85 43.0823V43.1435H122.527L122.589 43.1068ZM121.952 39.1033C121.842 38.9319 121.683 38.8095 121.487 38.6993C121.389 38.6503 121.279 38.6136 121.156 38.6014C121.034 38.5891 120.924 38.5646 120.801 38.5646C120.715 38.5646 120.642 38.5646 120.581 38.5646C120.52 38.5646 120.483 38.5646 120.458 38.5646C120.458 38.5891 120.458 38.6136 120.446 38.6381C120.446 38.6626 120.446 38.6871 120.446 38.7115C120.446 38.736 120.446 38.785 120.446 38.834C120.446 38.8829 120.446 38.9686 120.446 39.0666C120.446 39.2135 120.446 39.3849 120.446 39.5808C120.446 39.7644 120.446 39.9481 120.446 40.1317V40.8418C120.618 40.8418 120.789 40.8418 120.936 40.8173C121.083 40.8051 121.23 40.7684 121.377 40.7194C121.511 40.6704 121.634 40.6214 121.732 40.548C121.83 40.4745 121.915 40.3888 121.977 40.3031C122.038 40.2174 122.087 40.1072 122.111 40.0093C122.136 39.8991 122.16 39.7889 122.16 39.6787C122.16 39.4706 122.111 39.2747 122.001 39.1033H121.952Z" fill="#3E3A39"/>
<path d="M128.6 38.6626C128.502 38.7238 128.441 38.8095 128.38 38.9442C128.367 38.9687 128.355 39.0176 128.343 39.0911C128.343 39.1646 128.318 39.238 128.318 39.3237C128.318 39.4094 128.306 39.5074 128.294 39.6053C128.282 39.7032 128.294 39.8012 128.294 39.8991C128.294 40.0828 128.294 40.2909 128.282 40.5113C128.282 40.7439 128.269 41.001 128.257 41.2826C128.257 41.3683 128.257 41.4662 128.245 41.5887C128.233 41.7111 128.22 41.8458 128.184 41.9804C128.147 42.1151 128.098 42.262 128.024 42.3967C127.951 42.5314 127.841 42.666 127.706 42.7762C127.571 42.8864 127.388 42.9843 127.18 43.0456C126.972 43.1068 126.702 43.1435 126.384 43.1435C126.066 43.1435 125.821 43.1068 125.6 43.0456C125.38 42.9843 125.209 42.8986 125.074 42.7885C124.939 42.6783 124.829 42.5558 124.756 42.4334C124.682 42.2987 124.621 42.1763 124.584 42.0539C124.547 41.9315 124.523 41.809 124.523 41.7111C124.523 41.6009 124.523 41.5274 124.523 41.4785C124.523 41.356 124.523 41.1969 124.523 41.0132C124.523 40.8173 124.523 40.6092 124.523 40.3766V39.287C124.523 39.2135 124.523 39.1401 124.523 39.0666C124.523 39.0054 124.511 38.9442 124.499 38.883C124.486 38.834 124.462 38.785 124.437 38.7605C124.376 38.6871 124.303 38.6381 124.217 38.6014C124.131 38.5646 124.033 38.5524 123.923 38.5402V38.4789H125.833V38.5402C125.833 38.5402 125.711 38.5646 125.637 38.5769C125.564 38.5891 125.502 38.6259 125.453 38.6626C125.392 38.6993 125.356 38.7483 125.307 38.8095C125.27 38.8707 125.245 38.9564 125.245 39.0544C125.245 39.1646 125.245 39.2625 125.245 39.3482C125.245 39.4339 125.245 39.5196 125.245 39.6053V40.8786C125.245 40.9765 125.245 41.0744 125.245 41.1601C125.245 41.2581 125.245 41.356 125.245 41.454C125.245 41.6866 125.282 41.8825 125.343 42.0784C125.404 42.262 125.502 42.4212 125.613 42.5558C125.723 42.6905 125.87 42.7885 126.041 42.8619C126.213 42.9354 126.396 42.9721 126.617 42.9721C126.861 42.9721 127.07 42.9476 127.241 42.8864C127.412 42.8252 127.547 42.7517 127.669 42.6538C127.78 42.5558 127.878 42.4457 127.939 42.311C128 42.1886 128.049 42.0416 128.086 41.8947C128.122 41.7478 128.135 41.6009 128.147 41.454C128.147 41.3071 128.159 41.1479 128.159 41.001V39.9114C128.159 39.8257 128.159 39.74 128.159 39.642C128.159 39.5441 128.159 39.4706 128.159 39.3849C128.159 39.2992 128.159 39.2258 128.135 39.1523C128.135 39.0789 128.11 39.0299 128.098 38.9809C128.061 38.8585 127.976 38.7605 127.878 38.6871C127.767 38.6136 127.62 38.5646 127.412 38.5279V38.4667H129.004V38.5279C128.845 38.5524 128.722 38.5891 128.624 38.6503L128.6 38.6626Z" fill="#3E3A39"/>
<path d="M133.631 39.9726C133.57 39.7644 133.497 39.5686 133.387 39.3972C133.276 39.2135 133.142 39.0666 132.995 38.9319C132.848 38.7973 132.677 38.6993 132.481 38.6136C132.285 38.5402 132.089 38.5034 131.868 38.5034C131.575 38.5034 131.305 38.5646 131.073 38.6993C130.84 38.834 130.644 39.0054 130.485 39.2258C130.326 39.4461 130.203 39.691 130.13 39.9726C130.057 40.2542 130.008 40.5357 130.008 40.8296C130.008 41.1356 130.057 41.4295 130.142 41.6988C130.228 41.9682 130.35 42.2008 130.522 42.3967C130.681 42.5926 130.877 42.7517 131.109 42.8741C131.342 42.9843 131.599 43.0455 131.881 43.0455C132.101 43.0455 132.309 43.0088 132.505 42.9231C132.701 42.8374 132.872 42.7395 133.019 42.6048C133.166 42.4701 133.301 42.3232 133.399 42.1396C133.509 41.9682 133.57 41.7845 133.619 41.6009H133.693L133.668 43.0211H133.595C133.546 42.9476 133.485 42.8864 133.436 42.8252C133.374 42.764 133.338 42.7395 133.325 42.7395C133.325 42.7395 133.276 42.764 133.215 42.8129C133.142 42.8619 133.044 42.9109 132.921 42.9598C132.799 43.0088 132.64 43.0578 132.456 43.1068C132.272 43.1557 132.064 43.168 131.82 43.168C131.415 43.168 131.06 43.1068 130.742 42.9966C130.424 42.8864 130.142 42.7272 129.922 42.5191C129.701 42.311 129.53 42.0661 129.408 41.7723C129.285 41.4784 129.224 41.1601 129.224 40.8173C129.224 40.7439 129.224 40.6582 129.236 40.5602C129.236 40.4623 129.261 40.3521 129.297 40.2419C129.322 40.1317 129.359 40.0093 129.408 39.8869C129.457 39.7644 129.518 39.642 129.591 39.5196C129.677 39.3727 129.787 39.238 129.922 39.1033C130.057 38.9687 130.216 38.8585 130.387 38.7483C130.558 38.6381 130.767 38.5646 130.999 38.5034C131.232 38.4422 131.477 38.4177 131.758 38.4177C132.015 38.4177 132.236 38.4422 132.432 38.4912C132.628 38.5402 132.787 38.5891 132.909 38.6503C133.032 38.7116 133.142 38.7605 133.203 38.8095C133.276 38.8585 133.313 38.883 133.313 38.883C133.313 38.883 133.338 38.883 133.362 38.8585C133.387 38.834 133.411 38.8217 133.436 38.785C133.46 38.7605 133.497 38.7238 133.521 38.6871C133.546 38.6503 133.582 38.6136 133.607 38.5769H133.68V40.0215H133.607L133.631 39.9726Z" fill="#3E3A39"/>
<path d="M138.786 39.6788C138.749 39.6053 138.712 39.5196 138.663 39.4339C138.614 39.3482 138.565 39.2747 138.516 39.2013C138.468 39.1278 138.419 39.0544 138.37 38.9932C138.321 38.9319 138.284 38.883 138.247 38.8585C138.161 38.7728 138.064 38.7116 137.953 38.6871C137.843 38.6626 137.721 38.6381 137.549 38.6381C137.464 38.6381 137.402 38.6381 137.341 38.6381C137.28 38.6381 137.219 38.6381 137.158 38.6381H136.729C136.729 38.7483 136.729 38.8952 136.729 39.0789C136.729 39.2625 136.729 39.4584 136.729 39.6543V42.1641C136.729 42.2865 136.729 42.4089 136.729 42.5191C136.729 42.6293 136.754 42.715 136.79 42.764C136.851 42.8619 136.949 42.9231 137.06 42.9598C137.182 42.9966 137.28 43.0211 137.378 43.0333V43.0945H135.284V43.0333C135.395 43.0211 135.505 42.9966 135.603 42.9721C135.701 42.9476 135.811 42.8741 135.909 42.764C135.933 42.7395 135.945 42.7027 135.958 42.6538C135.958 42.6048 135.982 42.5558 135.982 42.4824C135.982 42.4212 135.982 42.3477 135.994 42.2742C135.994 42.2008 135.994 42.1273 135.994 42.0661C135.994 42.0049 135.994 41.9314 135.994 41.8335C135.994 41.7356 135.994 41.6254 135.994 41.5029C135.994 41.3805 135.994 41.2581 135.994 41.1357V38.6381H135.566C135.566 38.6381 135.456 38.6381 135.395 38.6381C135.333 38.6381 135.26 38.6381 135.174 38.6381C135.015 38.6381 134.88 38.6626 134.77 38.6993C134.66 38.7361 134.562 38.7973 134.476 38.883C134.44 38.9075 134.403 38.9564 134.354 39.0176C134.305 39.0789 134.256 39.1401 134.207 39.2135C134.158 39.287 134.109 39.3604 134.06 39.4461C134.011 39.5318 133.974 39.6053 133.95 39.6788L133.889 39.6543L134.085 38.43C134.182 38.4545 134.268 38.4667 134.354 38.4789C134.44 38.4912 134.562 38.5034 134.721 38.5034C134.88 38.5034 135.027 38.5034 135.162 38.5034C135.297 38.5034 135.419 38.5034 135.529 38.5034H136.754C136.876 38.5034 137.011 38.5034 137.121 38.5034C137.243 38.5034 137.366 38.5034 137.488 38.5034C137.611 38.5034 137.757 38.5034 137.929 38.5034C138.076 38.5034 138.186 38.4912 138.284 38.4667C138.382 38.4422 138.468 38.4177 138.565 38.3932L138.774 39.642L138.712 39.6665L138.786 39.6788Z" fill="#3E3A39"/>
<path d="M139.056 43.1068V43.0456C139.166 43.0333 139.264 42.9966 139.349 42.9599C139.447 42.9231 139.521 42.8619 139.582 42.7885C139.606 42.764 139.619 42.7272 139.631 42.6783C139.631 42.6293 139.655 42.5803 139.655 42.5069C139.655 42.4457 139.655 42.3722 139.668 42.2987C139.668 42.2253 139.668 42.1641 139.668 42.0906C139.668 42.0294 139.668 41.9437 139.668 41.8457C139.668 41.7478 139.668 41.6254 139.668 41.5029C139.668 41.3805 139.668 41.2581 139.668 41.1234V39.2625C139.668 39.189 139.668 39.1156 139.668 39.0421C139.668 38.9809 139.655 38.9197 139.643 38.8585C139.631 38.8095 139.606 38.7605 139.582 38.7361C139.521 38.6626 139.447 38.6136 139.362 38.5769C139.276 38.5402 139.178 38.5279 139.068 38.5157V38.4545H140.99V38.5157C140.904 38.5157 140.806 38.5524 140.696 38.5891C140.586 38.6259 140.512 38.6871 140.463 38.7973C140.427 38.8707 140.402 38.9564 140.402 39.0789C140.402 39.189 140.402 39.2992 140.402 39.3972C140.402 39.5074 140.402 39.6053 140.402 39.7155C140.402 39.8257 140.402 39.9236 140.402 40.0338V42.1885C140.402 42.311 140.402 42.4334 140.402 42.5436C140.402 42.6538 140.427 42.7395 140.463 42.7885C140.512 42.8619 140.598 42.9231 140.708 42.9599C140.819 42.9966 140.916 43.0211 141.014 43.0333V43.0945H139.068L139.056 43.1068Z" fill="#3E3A39"/>
<path d="M146.132 41.7111C146.01 42.0049 145.826 42.2497 145.606 42.4701C145.385 42.6782 145.128 42.8496 144.834 42.9598C144.54 43.07 144.234 43.1312 143.904 43.1312C143.573 43.1312 143.267 43.07 142.973 42.9598C142.679 42.8496 142.422 42.6905 142.214 42.4824C141.994 42.2742 141.822 42.0294 141.7 41.7355C141.578 41.4417 141.516 41.1234 141.516 40.7806C141.516 40.4133 141.578 40.0828 141.712 39.7889C141.847 39.4951 142.018 39.2502 142.251 39.0421C142.471 38.834 142.741 38.6871 143.047 38.5769C143.353 38.4667 143.671 38.4177 144.002 38.4177C144.369 38.4177 144.687 38.4789 144.981 38.6136C145.275 38.7483 145.52 38.9197 145.716 39.1278C145.912 39.3482 146.071 39.593 146.181 39.8746C146.291 40.1562 146.34 40.45 146.34 40.7561C146.34 41.0989 146.279 41.4172 146.144 41.7111H146.132ZM145.434 39.9726C145.373 39.7032 145.263 39.4706 145.128 39.2502C144.993 39.0299 144.822 38.8585 144.626 38.7238C144.43 38.5891 144.185 38.5157 143.916 38.5157C143.647 38.5157 143.402 38.5769 143.194 38.7238C142.986 38.8585 142.826 39.0299 142.692 39.2502C142.557 39.4584 142.459 39.7032 142.398 39.9848C142.337 40.2542 142.3 40.5357 142.3 40.8051C142.3 41.0744 142.337 41.3805 142.398 41.6498C142.471 41.9192 142.569 42.1518 142.704 42.3599C142.839 42.5681 143.01 42.7272 143.218 42.8496C143.426 42.9721 143.659 43.0333 143.928 43.0333C144.198 43.0333 144.43 42.9598 144.626 42.8252C144.822 42.6905 144.993 42.5068 145.128 42.2987C145.263 42.0906 145.361 41.8335 145.422 41.5641C145.483 41.2948 145.52 41.0255 145.52 40.7561C145.52 40.4868 145.483 40.2297 145.422 39.9603L145.434 39.9726Z" fill="#3E3A39"/>
<path d="M151.568 38.6626C151.47 38.7238 151.396 38.8095 151.347 38.9442C151.323 39.0054 151.298 39.1278 151.286 39.2992C151.286 39.4706 151.274 39.6543 151.261 39.8501C151.261 40.0338 151.249 40.2542 151.237 40.499C151.237 40.7439 151.237 41.0132 151.237 41.3071V41.7233C151.237 41.8702 151.237 42.0294 151.237 42.1885C151.237 42.3477 151.237 42.4946 151.237 42.6538V43.07C151.237 43.07 151.237 43.1068 151.225 43.1068C151.212 43.1068 151.2 43.119 151.176 43.119C151.139 43.119 151.102 43.0945 151.066 43.0578C150.698 42.6415 150.368 42.2498 150.074 41.907C149.78 41.5642 149.486 41.2214 149.217 40.903C148.948 40.5847 148.678 40.2664 148.421 39.9726C148.164 39.6665 147.882 39.3482 147.589 39.0299V41.7478C147.589 41.9682 147.589 42.1641 147.601 42.3355C147.601 42.5069 147.638 42.6415 147.686 42.7272C147.735 42.8252 147.809 42.8986 147.907 42.9476C148.005 42.9966 148.139 43.0333 148.323 43.0578V43.119H146.744V43.0578C146.842 43.0455 146.952 43.0211 147.05 42.9721C147.148 42.9231 147.233 42.8619 147.295 42.764C147.356 42.6783 147.393 42.5436 147.405 42.3599C147.417 42.1885 147.429 41.9804 147.442 41.7356C147.442 41.5519 147.454 41.3315 147.466 41.0867C147.466 40.8418 147.466 40.5725 147.466 40.2786V39.4951C147.466 39.4094 147.466 39.2992 147.466 39.1768C147.454 39.0544 147.417 38.9564 147.38 38.8707C147.331 38.7973 147.282 38.7238 147.209 38.6871C147.148 38.6381 147.074 38.6136 147.001 38.5891C146.927 38.5646 146.854 38.5524 146.781 38.5524V38.4912H148.09L151.139 42.0539V39.8624C151.139 39.691 151.139 39.5318 151.139 39.3727C151.139 39.2135 151.115 39.0911 151.078 39.0054C151.041 38.883 150.955 38.785 150.845 38.7116C150.735 38.6381 150.576 38.5891 150.368 38.5524V38.4912H151.959V38.5524C151.8 38.5769 151.678 38.6136 151.58 38.6748L151.568 38.6626Z" fill="#3E3A39"/>
<path d="M158.081 39.9726C158.02 39.7644 157.946 39.5686 157.836 39.3972C157.726 39.2135 157.591 39.0666 157.444 38.9319C157.297 38.7973 157.126 38.6993 156.93 38.6136C156.734 38.5402 156.538 38.5034 156.318 38.5034C156.024 38.5034 155.755 38.5646 155.522 38.6993C155.29 38.834 155.094 39.0054 154.934 39.2258C154.775 39.4461 154.653 39.691 154.579 39.9726C154.506 40.2542 154.457 40.5357 154.457 40.8296C154.457 41.1356 154.506 41.4295 154.592 41.6988C154.677 41.9682 154.8 42.2008 154.971 42.3967C155.13 42.5926 155.326 42.7517 155.559 42.8741C155.791 42.9843 156.049 43.0455 156.33 43.0455C156.551 43.0455 156.759 43.0088 156.955 42.9231C157.15 42.8374 157.322 42.7395 157.469 42.6048C157.616 42.4701 157.75 42.3232 157.848 42.1396C157.958 41.9682 158.02 41.7845 158.069 41.6009H158.142L158.118 43.0211H158.044C157.995 42.9476 157.934 42.8864 157.885 42.8252C157.824 42.764 157.787 42.7395 157.775 42.7395C157.775 42.7395 157.726 42.764 157.665 42.8129C157.591 42.8619 157.493 42.9109 157.371 42.9598C157.248 43.0088 157.089 43.0578 156.906 43.1068C156.722 43.1557 156.514 43.168 156.269 43.168C155.865 43.168 155.51 43.1068 155.192 42.9966C154.873 42.8864 154.592 42.7272 154.371 42.5191C154.151 42.311 153.98 42.0661 153.857 41.7723C153.735 41.4784 153.673 41.1601 153.673 40.8173C153.673 40.7439 153.673 40.6582 153.686 40.5602C153.686 40.4623 153.71 40.3521 153.747 40.2419C153.771 40.1317 153.808 40.0093 153.857 39.8869C153.906 39.7644 153.967 39.642 154.041 39.5196C154.126 39.3727 154.237 39.238 154.371 39.1033C154.506 38.9687 154.665 38.8585 154.837 38.7483C155.008 38.6381 155.216 38.5646 155.449 38.5034C155.681 38.4422 155.926 38.4177 156.208 38.4177C156.465 38.4177 156.685 38.4422 156.881 38.4912C157.077 38.5402 157.236 38.5891 157.359 38.6503C157.481 38.7116 157.591 38.7605 157.652 38.8095C157.726 38.8585 157.763 38.883 157.763 38.883C157.763 38.883 157.787 38.883 157.812 38.8585C157.836 38.834 157.861 38.8217 157.885 38.785C157.91 38.7605 157.946 38.7238 157.971 38.6871C157.995 38.6503 158.032 38.6136 158.056 38.5769H158.13V40.0215H158.056L158.081 39.9726Z" fill="#3E3A39"/>
<path d="M161.509 42.1518C161.423 42.3477 161.313 42.5191 161.178 42.666C161.044 42.8129 160.884 42.9231 160.701 43.0088C160.517 43.0945 160.321 43.1312 160.125 43.1312C159.954 43.1312 159.783 43.1068 159.599 43.0455C159.415 42.9843 159.256 42.8864 159.097 42.764C158.95 42.6293 158.815 42.4701 158.73 42.262C158.632 42.0539 158.583 41.8213 158.583 41.5519C158.583 41.356 158.619 41.1601 158.693 40.9765C158.766 40.7929 158.877 40.6337 159.011 40.4868C159.146 40.3399 159.305 40.2297 159.501 40.144C159.697 40.0583 159.905 40.0215 160.138 40.0215C160.309 40.0215 160.48 40.0583 160.664 40.1195C160.835 40.1807 160.995 40.2786 161.142 40.4011C161.288 40.5235 161.399 40.6827 161.497 40.8785C161.595 41.0744 161.631 41.2948 161.631 41.5519C161.631 41.7723 161.595 41.9804 161.509 42.1763V42.1518ZM160.982 41.0499C160.946 40.8785 160.897 40.7316 160.823 40.5847C160.75 40.4378 160.652 40.3276 160.529 40.2297C160.407 40.1317 160.26 40.095 160.089 40.095C159.942 40.095 159.819 40.144 159.709 40.2174C159.599 40.3031 159.501 40.4133 159.428 40.5602C159.354 40.6949 159.293 40.8541 159.244 41.0255C159.195 41.1969 159.183 41.3805 159.183 41.5519C159.183 41.7478 159.195 41.9314 159.232 42.1151C159.268 42.2987 159.317 42.4456 159.403 42.5803C159.489 42.715 159.574 42.8252 159.697 42.8986C159.819 42.9843 159.966 43.0211 160.125 43.0211C160.285 43.0211 160.431 42.9721 160.542 42.8741C160.652 42.7762 160.75 42.6415 160.823 42.4946C160.897 42.3477 160.946 42.1763 160.982 42.0049C161.019 41.8335 161.031 41.6621 161.031 41.5152C161.031 41.3683 161.019 41.2091 160.982 41.0499Z" fill="#3E3A39"/>
<path d="M162.831 43.021C162.757 43.0823 162.672 43.119 162.561 43.119C162.451 43.119 162.353 43.0823 162.28 43.021C162.206 42.9598 162.17 42.8619 162.17 42.7517C162.17 42.6415 162.206 42.5436 162.28 42.4701C162.353 42.3967 162.439 42.3599 162.561 42.3599C162.684 42.3599 162.757 42.3967 162.831 42.4824C162.904 42.5558 162.929 42.6538 162.929 42.7639C162.929 42.8741 162.892 42.9598 162.831 43.021Z" fill="#3E3A39"/>
<path d="M164.594 43.3883C164.557 43.474 164.521 43.5597 164.459 43.6332C164.398 43.7067 164.337 43.7801 164.276 43.8413C164.214 43.9025 164.141 43.9638 164.068 44.0127L164.019 43.9638C164.141 43.8536 164.239 43.7311 164.312 43.6087C164.386 43.4863 164.423 43.3394 164.423 43.1557C164.423 43.0823 164.41 43.0211 164.374 42.9476C164.337 42.8741 164.3 42.8374 164.263 42.8252C164.263 42.9109 164.227 42.9721 164.166 43.0333C164.117 43.0823 164.031 43.1067 163.933 43.1067C163.847 43.1067 163.774 43.0823 163.713 43.021C163.651 42.9598 163.627 42.8864 163.627 42.7884C163.627 42.666 163.664 42.5681 163.749 42.5069C163.835 42.4456 163.933 42.4089 164.043 42.4089C164.129 42.4089 164.215 42.4334 164.288 42.4701C164.361 42.5068 164.423 42.5681 164.472 42.6293C164.521 42.6905 164.557 42.7762 164.594 42.8619C164.619 42.9476 164.631 43.0333 164.631 43.119C164.631 43.2169 164.619 43.3149 164.582 43.4006L164.594 43.3883Z" fill="#3E3A39"/>
<path d="M170.581 43.1068H166.455V43.0456C166.565 43.0333 166.663 42.9966 166.774 42.9599C166.884 42.9231 166.957 42.8619 167.018 42.8007C167.043 42.7762 167.055 42.7395 167.067 42.6905C167.08 42.6415 167.092 42.5803 167.104 42.5191C167.104 42.4579 167.116 42.3844 167.129 42.311C167.129 42.2375 167.129 42.1763 167.129 42.1029C167.129 42.0416 167.129 41.9559 167.129 41.858C167.129 41.76 167.129 41.6376 167.129 41.5152C167.129 41.3928 167.129 41.2703 167.129 41.1357V39.287C167.129 39.2135 167.129 39.1401 167.129 39.0666C167.129 38.9932 167.116 38.9442 167.104 38.8952C167.092 38.8462 167.067 38.7973 167.043 38.7728C166.982 38.6993 166.908 38.6381 166.798 38.6014C166.7 38.5646 166.59 38.5402 166.48 38.5279V38.4667H168.524V38.5279C168.524 38.5279 168.402 38.5524 168.328 38.5646C168.255 38.5769 168.181 38.6136 168.108 38.6503C168.035 38.6871 167.986 38.7483 167.937 38.8095C167.888 38.883 167.863 38.9687 167.851 39.0911C167.851 39.238 167.851 39.3727 167.851 39.5074C167.851 39.642 167.851 39.7522 167.851 39.8746C167.851 39.9971 167.851 40.1195 167.851 40.2419V41.4173C167.851 41.5274 167.851 41.6376 167.851 41.7601C167.851 41.8825 167.851 42.0049 167.851 42.1518C167.851 42.2865 167.851 42.4212 167.863 42.5436C167.863 42.666 167.888 42.764 167.937 42.8252C167.949 42.8497 167.986 42.8742 168.035 42.8864C168.083 42.8986 168.145 42.9231 168.218 42.9354C168.292 42.9476 168.365 42.9599 168.451 42.9721C168.536 42.9843 168.622 42.9843 168.708 42.9843C168.745 42.9843 168.794 42.9843 168.867 42.9843C168.94 42.9843 169.026 42.9843 169.112 42.9721C169.198 42.9721 169.296 42.9599 169.393 42.9476C169.491 42.9354 169.577 42.9231 169.651 42.8986C169.822 42.8497 169.969 42.7885 170.079 42.715C170.189 42.6415 170.287 42.5436 170.373 42.4457C170.459 42.3477 170.52 42.2375 170.581 42.1151C170.642 41.9927 170.691 41.8702 170.74 41.7478L170.801 41.7723L170.569 43.0945L170.581 43.1068Z" fill="#3E3A39"/>
<path d="M172.833 40.4501H171.854V42.1396C171.854 42.36 171.903 42.5191 172.001 42.6171C172.099 42.715 172.221 42.764 172.368 42.764C172.491 42.764 172.601 42.7395 172.674 42.7028C172.76 42.666 172.821 42.6048 172.882 42.5191L172.919 42.5436C172.895 42.6048 172.858 42.6783 172.809 42.7517C172.76 42.8252 172.699 42.8864 172.625 42.9476C172.552 43.0088 172.466 43.0456 172.368 43.0823C172.27 43.119 172.148 43.1313 172.013 43.1313C171.927 43.1313 171.842 43.119 171.756 43.0945C171.67 43.07 171.597 43.0211 171.536 42.9721C171.474 42.9231 171.426 42.8619 171.377 42.7885C171.34 42.7272 171.315 42.6538 171.315 42.5803C171.315 42.1763 171.315 41.7968 171.315 41.4295C171.315 41.0745 171.315 40.7439 171.315 40.4623H170.85V40.3888L171.781 39.5074H171.83V40.0705H173.017L172.821 40.4623L172.833 40.4501Z" fill="#3E3A39"/>
<path d="M175.343 43.119H175.307V42.4824C175.184 42.6905 175.037 42.8497 174.866 42.9598C174.695 43.07 174.486 43.119 174.229 43.119C174.07 43.119 173.923 43.0823 173.764 43.0211C173.617 42.9598 173.483 42.8619 173.372 42.7272C173.262 42.5926 173.164 42.4334 173.091 42.2497C173.017 42.0539 172.993 41.8457 172.993 41.5886C172.993 41.3683 173.03 41.1601 173.115 40.9642C173.201 40.7684 173.311 40.6092 173.446 40.4623C173.58 40.3154 173.764 40.2052 173.96 40.1195C174.156 40.0338 174.388 39.997 174.633 39.997C174.756 39.997 174.878 39.9971 175.001 40.0338C175.123 40.0705 175.221 40.0827 175.307 40.1072C175.307 40.046 175.307 39.9603 175.307 39.8501C175.307 39.7399 175.307 39.6298 175.307 39.5073V38.9564L174.78 38.7605V38.7238L175.796 38.4422H175.845V42.617C175.845 42.617 175.943 42.666 176.041 42.7027C176.139 42.7395 176.225 42.7762 176.311 42.8129V42.8619L175.356 43.1312L175.343 43.119ZM175.294 40.7071C175.197 40.5357 175.074 40.3888 174.939 40.2786C174.793 40.1685 174.658 40.1195 174.535 40.1195C174.364 40.1195 174.229 40.1562 174.107 40.2297C173.984 40.3031 173.887 40.4133 173.813 40.5357C173.74 40.6582 173.678 40.8173 173.642 40.9765C173.605 41.1479 173.593 41.3193 173.593 41.4907C173.593 41.6621 173.617 41.8335 173.654 42.0049C173.691 42.164 173.764 42.311 173.85 42.4456C173.936 42.5681 174.046 42.6782 174.168 42.7517C174.291 42.8252 174.437 42.8619 174.609 42.8619C174.78 42.8619 174.939 42.8007 175.062 42.6783C175.184 42.5558 175.27 42.4089 175.307 42.2253V40.6949L175.294 40.7071Z" fill="#3E3A39"/>
<path d="M177.437 43.021C177.363 43.0823 177.278 43.119 177.167 43.119C177.057 43.119 176.959 43.0823 176.886 43.021C176.812 42.9598 176.776 42.8619 176.776 42.7517C176.776 42.6415 176.812 42.5436 176.886 42.4701C176.959 42.3967 177.045 42.3599 177.167 42.3599C177.29 42.3599 177.363 42.3967 177.437 42.4824C177.51 42.5558 177.535 42.6538 177.535 42.7639C177.535 42.8741 177.498 42.9598 177.437 43.021Z" fill="#3E3A39"/>
</g>
<defs>
<clipPath id="clip0_23_519">
<rect width="178" height="44.001" fill="white" transform="translate(0 -0.000518799)"/>
</clipPath>
</defs>
</svg>
